<svg xmlns="http://www.w3.org/2000/svg" width="267.404" height="84.315" viewBox="0 0 267.404 84.315">
  <g id="Group_2843" data-name="Group 2843" transform="translate(-86.311 -19.044)">
    <path id="Path_24135" data-name="Path 24135" d="M18.762,28.71a35.325,35.325,0,0,1-1.733,6.153,12.68,12.68,0,0,1-2.122,3.642,5.921,5.921,0,0,1-2.581,1.768,10.27,10.27,0,0,1-3.183.46,10.017,10.017,0,0,1-5.516-1.45q-2.263-1.45-2.263-4.915a5.767,5.767,0,0,1,1.025-3.289,13.629,13.629,0,0,1,2.652-2.864,21.194,21.194,0,0,1,3.642-2.4,39.961,39.961,0,0,1,4-1.839L26.13-24.66a37.215,37.215,0,0,1,1.2-4.456,15.1,15.1,0,0,1,2.228-4.279,12.13,12.13,0,0,1,3.713-3.253A11.319,11.319,0,0,1,39-37.956q4.1,0,6.118,2.369a8.594,8.594,0,0,1,2.016,5.764,13.039,13.039,0,0,1-.212,2.4H44.093a5.954,5.954,0,0,0,.212-1.7,5.628,5.628,0,0,0-.849-3.006A2.991,2.991,0,0,0,40.7-33.5a6.282,6.282,0,0,0-3.147.707,6.183,6.183,0,0,0-2.086,1.98,12,12,0,0,0-1.414,3.076q-.566,1.8-1.061,4ZM6.739,37.055A3.318,3.318,0,0,0,9.78,34.792a27.882,27.882,0,0,0,1.839-5.941l.5-2.263a19.251,19.251,0,0,0-5.941,3.748A5.808,5.808,0,0,0,4.122,34.3a2.921,2.921,0,0,0,.672,1.98A2.43,2.43,0,0,0,6.739,37.055Z" transform="translate(163.522 57)" fill="#fff"/>
    <path id="Path_24136" data-name="Path 24136" d="M30.766-13.363,25.8,9.787a12.656,12.656,0,0,0-.34,3.064,5.3,5.3,0,0,0,.409,2.111,1.656,1.656,0,0,0,1.7.953,4.549,4.549,0,0,0,3.3-1.975,21.966,21.966,0,0,0,3.166-5.447h2.519a35.764,35.764,0,0,1-3.268,6.775,17.6,17.6,0,0,1-3.166,3.779,7.8,7.8,0,0,1-2.928,1.668,9.72,9.72,0,0,1-2.485.374A4.86,4.86,0,0,1,21,19.524q-1.464-1.566-1.736-5.107a14.31,14.31,0,0,1-4.324,4.732A10.25,10.25,0,0,1,8.91,21.09a9.164,9.164,0,0,1-3.2-.579A7.148,7.148,0,0,1,2.918,18.6,9.9,9.9,0,0,1,.944,15.2a15.04,15.04,0,0,1-.749-5.073,26.4,26.4,0,0,1,.511-4.97A35.614,35.614,0,0,1,2.17-.154,27.758,27.758,0,0,1,4.621-5.26a22.377,22.377,0,0,1,3.4-4.324,15.375,15.375,0,0,1,4.324-3A12.364,12.364,0,0,1,17.625-13.7a8.247,8.247,0,0,1,3.336.749,3.987,3.987,0,0,1,2.247,2.86l.681-3.268Zm-19,29.278a5.011,5.011,0,0,0,2.247-.579A9.4,9.4,0,0,0,16.23,13.77,10.8,10.8,0,0,0,18.1,11.421a9.626,9.626,0,0,0,1.157-2.928L22.528-6.962a4.169,4.169,0,0,0-1.021-2.077,3.021,3.021,0,0,0-2.383-.919,7.066,7.066,0,0,0-4.97,2.043,17.922,17.922,0,0,0-3.677,4.97A26.373,26.373,0,0,0,8.229,3.319,27.178,27.178,0,0,0,7.48,9.174q0,3.881,1.157,5.311A3.817,3.817,0,0,0,11.77,15.915ZM60.18,8.494a33.647,33.647,0,0,1-4.6,4.221q-2.281,1.7-4.392,3a9.534,9.534,0,0,1-1.94,2.519A11.037,11.037,0,0,1,46.869,19.9a10.08,10.08,0,0,1-2.587.919,12.4,12.4,0,0,1-2.485.272,11.523,11.523,0,0,1-4.46-.783,9.5,9.5,0,0,1-3.1-2.009,7.678,7.678,0,0,1-1.8-2.792,8.981,8.981,0,0,1-.579-3.132,6.922,6.922,0,0,1,1.123-4.017,6.783,6.783,0,0,1,2.485-2.315A83.292,83.292,0,0,0,40.3-4.069q1.975-5,3.541-10.043l7.149-1.362q.34,6.536.647,10.622t.545,6.673q.238,2.587.374,4.187t.136,3.3q0,.613-.034,1.192t-.1,1.123q1.294-.749,2.519-1.566T57.32,8.494Zm-14.639.885q0-1.43-.1-2.655t-.306-3.064q-.2-1.838-.477-4.63t-.545-7.217A63.516,63.516,0,0,1,41.83-.9Q40.5,2.57,38.664,6.247a2.708,2.708,0,0,1,.681.885,3.032,3.032,0,0,1,.272,1.362,3.334,3.334,0,0,1-.919,2.519,2.717,2.717,0,0,1-1.872.885,1.767,1.767,0,0,1-1.634-.953,5.694,5.694,0,0,0,1.089,3.711,4.065,4.065,0,0,0,3.336,1.328,6.128,6.128,0,0,0,4.255-1.5Q45.541,12.987,45.541,9.379Zm35.133,3.2a6.069,6.069,0,0,0,.409,2.383,1.6,1.6,0,0,0,1.634.953q3.2,0,6.4-7.422h2.519A36.913,36.913,0,0,1,88.368,15.3,16.542,16.542,0,0,1,85.2,19.081a8.144,8.144,0,0,1-2.86,1.634,8.787,8.787,0,0,1-2.349.374q-3.541,0-5.038-2.213a9.557,9.557,0,0,1-1.5-5.481,23.038,23.038,0,0,1,.511-4.7q.511-2.451,1.123-4.834t1.123-4.6a18.137,18.137,0,0,0,.511-4.051,5.262,5.262,0,0,0-.613-2.723,2.55,2.55,0,0,0-2.383-1.021q-4.358,0-7.558,7.285l-4.7,21.924H54.665L64.674-26.027l7.013-.953L67.67-8.256a16.265,16.265,0,0,1,2.587-2.86,12.2,12.2,0,0,1,2.485-1.668,8.161,8.161,0,0,1,2.247-.749,12.256,12.256,0,0,1,1.94-.17,8.3,8.3,0,0,1,3.4.613,5.6,5.6,0,0,1,2.179,1.668,6.072,6.072,0,0,1,1.123,2.451,13.788,13.788,0,0,1,.306,2.962,23.039,23.039,0,0,1-.511,4.7q-.511,2.451-1.123,4.834t-1.123,4.7A20.273,20.273,0,0,0,80.674,12.579ZM94.292-23.167a4.5,4.5,0,0,1,1.294-3.2,4.237,4.237,0,0,1,3.2-1.362,4.38,4.38,0,0,1,3.2,1.362,4.38,4.38,0,0,1,1.362,3.2,4.237,4.237,0,0,1-1.362,3.2,4.5,4.5,0,0,1-3.2,1.294,4.347,4.347,0,0,1-3.2-1.294A4.347,4.347,0,0,1,94.292-23.167Zm6.332,9.8-4.97,23.15a12.656,12.656,0,0,0-.34,3.064,5.3,5.3,0,0,0,.409,2.111,1.656,1.656,0,0,0,1.7.953,4.549,4.549,0,0,0,3.3-1.975,21.965,21.965,0,0,0,3.166-5.447h2.519a35.765,35.765,0,0,1-3.268,6.775,17.6,17.6,0,0,1-3.166,3.779,7.8,7.8,0,0,1-2.928,1.668,9.72,9.72,0,0,1-2.485.374,6.221,6.221,0,0,1-2.928-.613A4.94,4.94,0,0,1,89.8,18.843a7.037,7.037,0,0,1-.987-2.383,13.321,13.321,0,0,1-.306-2.928,19.306,19.306,0,0,1,.17-2.519q.17-1.294.443-2.519l4.63-21.856Zm20.494-.34q4.085,0,5.856,2.758t1.838,8A17.489,17.489,0,0,0,139.978-7.03l.613,1.838a14.954,14.954,0,0,1-5.073,3.643,23.355,23.355,0,0,1-6.843,1.94,37.888,37.888,0,0,1-1.5,8.2,24.076,24.076,0,0,1-3.064,6.57,14.628,14.628,0,0,1-4.494,4.358A10.834,10.834,0,0,1,113.9,21.09a14.589,14.589,0,0,1-4.187-.579,8.622,8.622,0,0,1-3.37-1.872A8.836,8.836,0,0,1,104.1,15.3a13.4,13.4,0,0,1-.817-4.97,33.941,33.941,0,0,1,.34-4.494A33.265,33.265,0,0,1,104.777.629a30.669,30.669,0,0,1,2.145-5.243,19.057,19.057,0,0,1,3.336-4.6,15.718,15.718,0,0,1,4.664-3.268A14.653,14.653,0,0,1,121.118-13.7Zm-4.63,29.618a5.029,5.029,0,0,0,2.962-1.055,10.073,10.073,0,0,0,2.655-3.03,21.046,21.046,0,0,0,2.043-4.8A33.2,33.2,0,0,0,125.34.6q-1.7,0-2.213-.783a3.613,3.613,0,0,1-.511-2.009,3.414,3.414,0,0,1,.817-2.553,3.476,3.476,0,0,1,2.111-.919A5.188,5.188,0,0,0,124.216-9a3.956,3.956,0,0,0-2.758-.953A5.692,5.692,0,0,0,118.293-9a10.934,10.934,0,0,0-2.655,2.485,17.813,17.813,0,0,0-2.111,3.541,29.961,29.961,0,0,0-1.532,4.119,31.507,31.507,0,0,0-.919,4.187,26.083,26.083,0,0,0-.306,3.779q0,3.541,1.26,5.175T116.488,15.915Zm39.286-3.609q0,3.609,2.451,3.609a5.6,5.6,0,0,0,2.111-.477,6.638,6.638,0,0,1-.817,2.962,5.048,5.048,0,0,1-1.6,1.7,5.783,5.783,0,0,1-1.872.783,7.985,7.985,0,0,1-1.634.2,5.264,5.264,0,0,1-4.221-1.94,8.622,8.622,0,0,1-1.634-5.685,22.741,22.741,0,0,1,.511-4.63q.511-2.451,1.123-4.868T151.315-.7a18.581,18.581,0,0,0,.511-4.085,5.262,5.262,0,0,0-.613-2.723,2.55,2.55,0,0,0-2.383-1.021q-4.221,0-7.558,7.285l-4.7,21.924h-6.809l7.217-34.044h6.877L142.77-8.256a16.264,16.264,0,0,1,2.587-2.86,12.2,12.2,0,0,1,2.485-1.668,8.161,8.161,0,0,1,2.247-.749,12.256,12.256,0,0,1,1.94-.17,8.3,8.3,0,0,1,3.4.613,5.6,5.6,0,0,1,2.179,1.668,6.072,6.072,0,0,1,1.123,2.451,13.459,13.459,0,0,1,.306,2.894,23.531,23.531,0,0,1-.511,4.732q-.511,2.485-1.123,4.868t-1.123,4.664A19.032,19.032,0,0,0,155.775,12.306Z" transform="translate(193.378 67.863)" fill="#fff"/>
    <path id="Union_10" data-name="Union 10" d="M58.971,71.775A5.626,5.626,0,1,1,64.6,77.4,5.626,5.626,0,0,1,58.971,71.775Zm-24.109,0A5.626,5.626,0,1,1,40.488,77.4,5.626,5.626,0,0,1,34.862,71.775Zm7.493-8.059q-7.9,0-11.674-3.3T26.905,50L23.691,24.8q0-7.2,3.776-10.5T39.141,11h82.552v9.808H35.929A1,1,0,0,0,34.8,21.941l3.214,30.839a1,1,0,0,0,1.128,1.128h22.22q1.215,0,1.215-1.128l-1.607-11.1H50.035L48.428,30.868H69.953L73.168,50q0,7.117-3.819,10.416t-11.717,3.3ZM20.717,20.873,0,10.278,3.984,0,25.718,11.114l-.09.231a9.321,9.321,0,0,0-1.714,1.35c-1.813,1.818-2.887,4.568-3.194,8.176h0Z" transform="translate(86.311 25.958)" fill="#fff"/>
  </g>
</svg>
