<svg xmlns="http://www.w3.org/2000/svg" width="20.609" height="15.925" viewBox="0 0 20.609 15.925">
  <path id="Path_256" data-name="Path 256" d="M22.138,6.486a29.882,29.882,0,0,1,.471,5.476,29.882,29.882,0,0,1-.471,5.476,2.844,2.844,0,0,1-2,2.013c-1.761.474-7.837.474-7.837.474s-6.072,0-7.837-.474a2.843,2.843,0,0,1-2-2.013A29.882,29.882,0,0,1,2,11.963a29.882,29.882,0,0,1,.471-5.476,2.844,2.844,0,0,1,2-2.013C6.232,4,12.3,4,12.3,4s6.076,0,7.837.474A2.843,2.843,0,0,1,22.138,6.486Zm-11.894,8.96,6.183-3.484L10.244,8.479Z" transform="translate(-2 -4)" fill="#fff"/>
</svg>
