<svg xmlns="http://www.w3.org/2000/svg" width="21.3" height="17.093" viewBox="0 0 21.3 17.093">
  <path id="Path_254" data-name="Path 254" d="M23.078,5.718a8.851,8.851,0,0,1-2.51.679A4.338,4.338,0,0,0,22.491,4.01a8.8,8.8,0,0,1-2.775,1.047A4.412,4.412,0,0,0,14.461,4.2,4.293,4.293,0,0,0,12.269,8.99,12.463,12.463,0,0,1,3.262,4.483a4.283,4.283,0,0,0,1.352,5.759A4.4,4.4,0,0,1,2.635,9.7v.054a4.33,4.33,0,0,0,3.5,4.229,4.456,4.456,0,0,1-1.974.074,4.367,4.367,0,0,0,4.083,3,8.855,8.855,0,0,1-6.469,1.786,12.481,12.481,0,0,0,6.7,1.939A12.265,12.265,0,0,0,20.912,8.509c0-.186-.005-.373-.014-.557a8.815,8.815,0,0,0,2.181-2.233Z" transform="translate(-1.779 -3.688)" fill="#fff"/>
</svg>
