<svg id="shopping-cart-2-line_1_" data-name="shopping-cart-2-line (1)" xmlns="http://www.w3.org/2000/svg" width="28" height="28" viewBox="0 0 28 28">
  <path id="Path_24088" data-name="Path 24088" d="M0,0H28V28H0Z" fill="none"/>
  <path id="Path_24089" data-name="Path 24089" d="M4.621,7.291.757,3.438,2.443,1.757,6.305,5.611H24.465A1.189,1.189,0,0,1,25.606,7.14l-2.859,9.506a1.191,1.191,0,0,1-1.141.847H7V19.87H20.109v2.377H5.812a1.19,1.19,0,0,1-1.191-1.188ZM7,7.987v7.13H20.719l2.145-7.13ZM6.408,27a1.782,1.782,0,1,1,1.787-1.782A1.785,1.785,0,0,1,6.408,27Zm14.3,0a1.782,1.782,0,1,1,1.787-1.782A1.785,1.785,0,0,1,20.7,27Z" transform="translate(0 0)" fill="#333"/>
</svg>
