<svg xmlns="http://www.w3.org/2000/svg" xmlns:xlink="http://www.w3.org/1999/xlink" width="153.167" height="48.295" viewBox="0 0 153.167 48.295">
  <defs>
    <linearGradient id="linear-gradient" x1="0.053" y1="0.147" x2="1.052" y2="1.046" gradientUnits="objectBoundingBox">
      <stop offset="0" stop-color="#ffa700"/>
      <stop offset="1" stop-color="#fe1465"/>
    </linearGradient>
  </defs>
  <g id="Group_2832" data-name="Group 2832" transform="translate(-86.311 -19.044)">
    <path id="Path_24135" data-name="Path 24135" d="M11.329.23a20.234,20.234,0,0,1-.992,3.524A7.263,7.263,0,0,1,9.122,5.84,3.391,3.391,0,0,1,7.643,6.853a5.883,5.883,0,0,1-1.823.263,5.738,5.738,0,0,1-3.16-.83,3.084,3.084,0,0,1-1.3-2.815,3.3,3.3,0,0,1,.587-1.884A7.806,7.806,0,0,1,3.47-.054,12.14,12.14,0,0,1,5.557-1.431,22.889,22.889,0,0,1,7.846-2.484l7.7-27.856a21.316,21.316,0,0,1,.689-2.552,8.649,8.649,0,0,1,1.276-2.451,6.948,6.948,0,0,1,2.127-1.863,6.484,6.484,0,0,1,3.281-.749,4.346,4.346,0,0,1,3.5,1.357,4.922,4.922,0,0,1,1.155,3.3,7.469,7.469,0,0,1-.122,1.377h-1.62a3.411,3.411,0,0,0,.122-.972,3.224,3.224,0,0,0-.486-1.722,1.713,1.713,0,0,0-1.58-.79,3.6,3.6,0,0,0-1.8.405,3.542,3.542,0,0,0-1.2,1.134,6.875,6.875,0,0,0-.81,1.762q-.324,1.033-.608,2.289ZM4.443,5.01a1.9,1.9,0,0,0,1.742-1.3A15.971,15.971,0,0,0,7.238.311l.284-1.3a11.027,11.027,0,0,0-3.4,2.147A3.327,3.327,0,0,0,2.944,3.43a1.673,1.673,0,0,0,.385,1.134A1.392,1.392,0,0,0,4.443,5.01Z" transform="translate(129.954 57)" fill="#0a1d48"/>
    <path id="Path_24136" data-name="Path 24136" d="M17.706-19.5,14.859-6.24a7.25,7.25,0,0,0-.2,1.755A3.038,3.038,0,0,0,14.9-3.276a.948.948,0,0,0,.975.546,2.606,2.606,0,0,0,1.891-1.131,12.582,12.582,0,0,0,1.813-3.12h1.443A20.485,20.485,0,0,1,19.149-3.1,10.083,10.083,0,0,1,17.336-.936,4.468,4.468,0,0,1,15.658.02a5.567,5.567,0,0,1-1.423.214,2.784,2.784,0,0,1-2.126-.9,4.765,4.765,0,0,1-.995-2.925A8.2,8.2,0,0,1,8.639-.878,5.871,5.871,0,0,1,5.187.234,5.249,5.249,0,0,1,3.354-.1a4.094,4.094,0,0,1-1.6-1.092A5.67,5.67,0,0,1,.624-3.139,8.615,8.615,0,0,1,.195-6.045,15.121,15.121,0,0,1,.488-8.892a20.4,20.4,0,0,1,.839-3.042,15.9,15.9,0,0,1,1.4-2.925,12.817,12.817,0,0,1,1.95-2.477,8.807,8.807,0,0,1,2.477-1.716,7.082,7.082,0,0,1,3.022-.643,4.724,4.724,0,0,1,1.911.429,2.284,2.284,0,0,1,1.287,1.638l.39-1.872ZM6.825-2.73a2.87,2.87,0,0,0,1.287-.332,5.387,5.387,0,0,0,1.267-.9A6.183,6.183,0,0,0,10.452-5.3a5.514,5.514,0,0,0,.663-1.677l1.872-8.853a2.388,2.388,0,0,0-.585-1.19,1.731,1.731,0,0,0-1.365-.526A4.048,4.048,0,0,0,8.19-16.38a10.265,10.265,0,0,0-2.106,2.847A15.106,15.106,0,0,0,4.8-9.945a15.567,15.567,0,0,0-.429,3.354,5.047,5.047,0,0,0,.663,3.042A2.187,2.187,0,0,0,6.825-2.73ZM34.554-6.981a19.273,19.273,0,0,1-2.632,2.418q-1.307.975-2.515,1.716A5.461,5.461,0,0,1,28.295-1.4a6.322,6.322,0,0,1-1.365.955,5.774,5.774,0,0,1-1.482.527,7.105,7.105,0,0,1-1.424.156A6.6,6.6,0,0,1,21.47-.214,5.441,5.441,0,0,1,19.7-1.365a4.4,4.4,0,0,1-1.034-1.6,5.144,5.144,0,0,1-.331-1.794,3.965,3.965,0,0,1,.643-2.3A3.885,3.885,0,0,1,20.4-8.385a47.709,47.709,0,0,0,2.769-5.792q1.131-2.867,2.028-5.752l4.1-.78q.195,3.744.37,6.084t.312,3.822q.137,1.482.215,2.4t.078,1.891q0,.351-.02.682t-.058.643q.741-.429,1.443-.9t1.287-.9Zm-8.385.507q0-.819-.059-1.521T25.935-9.75q-.117-1.053-.273-2.652t-.312-4.134a36.382,36.382,0,0,1-1.307,4.173q-.76,1.989-1.813,4.1a1.551,1.551,0,0,1,.39.507,1.736,1.736,0,0,1,.156.78,1.91,1.91,0,0,1-.527,1.443,1.556,1.556,0,0,1-1.073.507,1.012,1.012,0,0,1-.936-.546,3.262,3.262,0,0,0,.624,2.126,2.328,2.328,0,0,0,1.911.76,3.51,3.51,0,0,0,2.438-.858A3.784,3.784,0,0,0,26.169-6.474ZM46.293-4.641a3.476,3.476,0,0,0,.234,1.365.916.916,0,0,0,.936.546q1.833,0,3.666-4.251h1.443a21.143,21.143,0,0,1-1.872,3.9A9.475,9.475,0,0,1,48.886-.916,4.665,4.665,0,0,1,47.248.02,5.033,5.033,0,0,1,45.9.234a3.229,3.229,0,0,1-2.886-1.267,5.474,5.474,0,0,1-.858-3.139,13.2,13.2,0,0,1,.293-2.691q.292-1.4.643-2.769t.644-2.633a10.388,10.388,0,0,0,.292-2.321,3.014,3.014,0,0,0-.351-1.56,1.461,1.461,0,0,0-1.365-.585q-2.5,0-4.329,4.173L35.295,0h-3.9l5.733-26.754,4.017-.546-2.3,10.725a9.317,9.317,0,0,1,1.482-1.638,6.99,6.99,0,0,1,1.424-.955,4.674,4.674,0,0,1,1.287-.429,7.02,7.02,0,0,1,1.111-.1,4.756,4.756,0,0,1,1.95.351,3.206,3.206,0,0,1,1.248.955,3.478,3.478,0,0,1,.644,1.4,7.9,7.9,0,0,1,.175,1.7,13.2,13.2,0,0,1-.292,2.691q-.292,1.4-.644,2.769t-.643,2.691A11.612,11.612,0,0,0,46.293-4.641Zm7.8-20.475a2.575,2.575,0,0,1,.741-1.833,2.427,2.427,0,0,1,1.833-.78,2.509,2.509,0,0,1,1.833.78,2.509,2.509,0,0,1,.78,1.833,2.427,2.427,0,0,1-.78,1.833,2.575,2.575,0,0,1-1.833.741,2.49,2.49,0,0,1-1.833-.741A2.49,2.49,0,0,1,54.093-25.116ZM57.72-19.5,54.873-6.24a7.25,7.25,0,0,0-.195,1.755,3.038,3.038,0,0,0,.234,1.209.948.948,0,0,0,.975.546,2.606,2.606,0,0,0,1.891-1.131,12.582,12.582,0,0,0,1.813-3.12h1.443A20.485,20.485,0,0,1,59.163-3.1,10.083,10.083,0,0,1,57.349-.936,4.468,4.468,0,0,1,55.673.02a5.567,5.567,0,0,1-1.424.214,3.563,3.563,0,0,1-1.677-.351,2.829,2.829,0,0,1-1.053-.936,4.031,4.031,0,0,1-.566-1.365,7.63,7.63,0,0,1-.175-1.677,11.059,11.059,0,0,1,.1-1.443q.1-.741.253-1.443L53.781-19.5Zm11.739-.195a3.681,3.681,0,0,1,3.354,1.58,8.739,8.739,0,0,1,1.053,4.582,10.018,10.018,0,0,0,6.4-2.34l.351,1.053a8.566,8.566,0,0,1-2.905,2.087,13.378,13.378,0,0,1-3.92,1.111,21.7,21.7,0,0,1-.858,4.7,13.791,13.791,0,0,1-1.755,3.763A8.379,8.379,0,0,1,68.6-.663a6.206,6.206,0,0,1-3.276.9,8.356,8.356,0,0,1-2.4-.331A4.939,4.939,0,0,1,61-1.17a5.061,5.061,0,0,1-1.287-1.911,7.678,7.678,0,0,1-.468-2.847A19.442,19.442,0,0,1,59.436-8.5a19.054,19.054,0,0,1,.663-2.983,17.567,17.567,0,0,1,1.229-3,10.916,10.916,0,0,1,1.911-2.633,9,9,0,0,1,2.672-1.872A8.393,8.393,0,0,1,69.459-19.695ZM66.807-2.73a2.881,2.881,0,0,0,1.7-.6A5.77,5.77,0,0,0,70.024-5.07a12.056,12.056,0,0,0,1.17-2.75,19.017,19.017,0,0,0,.682-3.685q-.975,0-1.268-.449a2.07,2.07,0,0,1-.292-1.151,1.955,1.955,0,0,1,.468-1.462,1.991,1.991,0,0,1,1.209-.526A2.972,2.972,0,0,0,71.233-17a2.266,2.266,0,0,0-1.579-.546A3.26,3.26,0,0,0,67.84-17a6.263,6.263,0,0,0-1.521,1.423,10.2,10.2,0,0,0-1.209,2.028,17.161,17.161,0,0,0-.878,2.359,18.047,18.047,0,0,0-.527,2.4,14.941,14.941,0,0,0-.175,2.165,4.872,4.872,0,0,0,.722,2.964A3.046,3.046,0,0,0,66.807-2.73ZM89.31-4.8q0,2.067,1.4,2.067A3.208,3.208,0,0,0,91.923-3a3.8,3.8,0,0,1-.468,1.7,2.891,2.891,0,0,1-.916.975,3.313,3.313,0,0,1-1.073.449,4.574,4.574,0,0,1-.936.117A3.015,3.015,0,0,1,86.112-.878a4.939,4.939,0,0,1-.936-3.256,13.026,13.026,0,0,1,.293-2.652q.292-1.4.644-2.789t.643-2.672a10.643,10.643,0,0,0,.293-2.34,3.014,3.014,0,0,0-.351-1.56,1.461,1.461,0,0,0-1.365-.585q-2.418,0-4.329,4.173L78.312,0h-3.9l4.134-19.5h3.939l-.624,2.925a9.317,9.317,0,0,1,1.482-1.638,6.99,6.99,0,0,1,1.424-.955,4.674,4.674,0,0,1,1.287-.429,7.02,7.02,0,0,1,1.111-.1,4.756,4.756,0,0,1,1.95.351,3.206,3.206,0,0,1,1.248.955,3.478,3.478,0,0,1,.644,1.4,7.709,7.709,0,0,1,.175,1.657,13.478,13.478,0,0,1-.293,2.711q-.292,1.424-.644,2.788T89.6-7.157A10.9,10.9,0,0,0,89.31-4.8Z" transform="translate(147.555 58.853)" fill="#0a1d48"/>
    <path id="Union_10" data-name="Union 10" d="M33.778,41.112A3.222,3.222,0,1,1,37,44.335,3.223,3.223,0,0,1,33.778,41.112Zm-13.81,0a3.222,3.222,0,1,1,3.222,3.222A3.222,3.222,0,0,1,19.969,41.112ZM24.261,36.5q-4.524,0-6.687-1.889t-2.163-5.966L13.57,14.208q0-4.126,2.163-6.016T22.42,6.3H69.7v5.618H20.58a.571.571,0,0,0-.646.646l1.841,17.664a.571.571,0,0,0,.646.646H35.149q.7,0,.7-.646l-.921-6.36H28.66l-.921-6.191h12.33l1.841,10.96q0,4.077-2.188,5.966T33.011,36.5ZM11.866,11.956,0,5.887,2.282,0,14.731,6.366,14.68,6.5a5.339,5.339,0,0,0-.982.773,7.322,7.322,0,0,0-1.83,4.683h0Z" transform="translate(86.311 23.004)" fill="url(#linear-gradient)"/>
  </g>
</svg>
