<svg id="user-3-line" xmlns="http://www.w3.org/2000/svg" width="28" height="28" viewBox="0 0 28 28">
  <path id="Path_24090" data-name="Path 24090" d="M0,0H28V28H0Z" fill="none"/>
  <path id="Path_24091" data-name="Path 24091" d="M21.333,25H19.167V22.714a3.343,3.343,0,0,0-3.25-3.429h-6.5a3.343,3.343,0,0,0-3.25,3.429V25H4V22.714A5.571,5.571,0,0,1,9.417,17h6.5a5.571,5.571,0,0,1,5.417,5.714ZM12.667,14.714a6.686,6.686,0,0,1-6.5-6.857A6.686,6.686,0,0,1,12.667,1a6.686,6.686,0,0,1,6.5,6.857A6.686,6.686,0,0,1,12.667,14.714Zm0-2.286A4.457,4.457,0,0,0,17,7.857a4.457,4.457,0,0,0-4.333-4.571A4.457,4.457,0,0,0,8.333,7.857,4.457,4.457,0,0,0,12.667,12.429Z" transform="translate(1.333 0.333)" fill="#333"/>
</svg>
